<svg xmlns="http://www.w3.org/2000/svg" width="55.288" height="163.933" viewBox="0 0 55.288 163.933">
  <g id="Grupo_1265" data-name="Grupo 1265" transform="translate(-665.17 -41.702)">
    <rect id="Retângulo_119" data-name="Retângulo 119" width="49" height="152" transform="translate(670.959 48)" fill="#fff"/>
    <g id="Grupo_60" data-name="Grupo 60" transform="translate(665.67 42.202)">
      <path id="Subtração_3" data-name="Subtração 3" d="M54.288,162.935v0H0V0H54.288V162.935Zm-41.9-20.945v5.818h27.16V128.94H34.266v13.05Zm15.15-35.422h0a11.41,11.41,0,0,0-5.821,2.5,10.479,10.479,0,0,0-3.434,8.263,10.7,10.7,0,0,0,10.8,11.079c6.367,0,10.814-4.82,10.814-11.72a13.8,13.8,0,0,0-3.994-9.714l-2.788,3.645c1.7,2.29,2.22,3.689,2.22,5.986a6.4,6.4,0,0,1-1.7,4.634l-6.1-14.674Zm-8.891-7.8v5.744H39.538V98.769H27.647a4.476,4.476,0,0,1-4.412-4.732,4.6,4.6,0,0,1,4.412-4.828H39.538V83.466H26.581c-4.878,0-8.285,3.486-8.285,8.477a8.67,8.67,0,0,0,3.347,6.826ZM29.083,58.717A10.883,10.883,0,0,0,18.3,69.918c0,6.321,4.738,11.272,10.787,11.272a11.245,11.245,0,0,0,0-22.473ZM18.65,36.1v6.558l14.232,5.195L18.65,53.04v6.574l20.892-8.619V44.713ZM29.083,14.534A10.88,10.88,0,0,0,18.3,25.729C18.3,32.05,23.034,37,29.083,37A10.892,10.892,0,0,0,39.9,25.806,10.932,10.932,0,0,0,29.083,14.534Zm-.237,108.338h0a6.525,6.525,0,0,1-3.91-1.238,5.347,5.347,0,0,1-2.082-4.408,4.777,4.777,0,0,1,2.932-4.446L29.934,122.8A8.319,8.319,0,0,1,28.846,122.872Zm.237-47.338A5.528,5.528,0,0,1,23.206,70a5.69,5.69,0,0,1,5.877-5.616c3.418,0,5.9,2.33,5.9,5.539A5.7,5.7,0,0,1,29.083,75.534Zm0-44.2a6.1,6.1,0,0,1-4.229-1.561,5.38,5.38,0,0,1-1.648-3.968,5.69,5.69,0,0,1,5.877-5.616c3.418,0,5.9,2.33,5.9,5.539A5.7,5.7,0,0,1,29.083,31.336Z" transform="translate(0)" fill="#de241b" stroke="rgba(0,0,0,0)" stroke-miterlimit="10" stroke-width="1"/>
    </g>
  </g>
</svg>
